<svg class="diagram-root" style="background: #f5f6f6" xmlns="http://www.w3.org/2000/svg" xmlns:xlink="http://www.w3.org/1999/xlink"><style>.diagram-root { font-family: "Helvetica Neue", sans-serif; font-size: 12px; } .t { overflow: visible; } .t-bg { y: 40; fill: #fff;   } .th { fill: #005aa0;   } .tht { fill: #fff; font-size: 14px;  } .tf { fill: #323c46; overflow: visible; } .tf.pk { fill: #005aa0; font-weight: bold; } .tf.fk { font-weight: bold; } .ty { fill: #adb1b5; font-weight: normal; text-anchor: end; } .r { fill: transparent; stroke: #c3c3c3; stroke-width: 1; } .l { stroke: 1; } .i { fill: #c2c7ce; stroke: #c2c7ce; } .i.ix { fill: #afb3b6; stroke: #000; } .fa { fill: transparent; overflow: visible; } .fa .bg.hover { fill: #f7f7f7; } .c { cy: 12; r: 4; stroke: #d2d2dc; fill: #d2d2dc; } .hr { fill: transparent; stroke: #323c46; stroke-opacity: 0.035; stroke-width: 13; } .dc { stroke: #fa5a3c; fill: #fa5a3c; } .x { stroke: white; stroke-width: 1; } .hl .th { fill: #1b9bff; } .hl .tht {  } .fhl .bg { fill: #e7f4ff; } .fhls .bg {  } .r.hl { stroke: #1b9bff; } .dim { opacity: 0.25; }</style><g class="drawing-wrapper" transform="translate(279.2772727272727, 338.1800000000002) scale(1,1)"><g class="rs"><path d="M -82.28 48.81999999999999 m -1, 0 a 1,1 0 1,0 2,0 a 1,1 0 1,0 -2,0 M -82.28 48.81999999999999 m -0.5, 0 a 0.5,0.5 0 1,0 1,0 a 0.5,0.5 0 1,0 -1,0  M-82.28 48.81999999999999 L-82.28 48.81999999999999 -70.28 48.81999999999999 M -82.28 54.81999999999999 m -1, 0 a 1,1 0 1,0 2,0 a 1,1 0 1,0 -2,0 M -82.28 54.81999999999999 m -0.5, 0 a 0.5,0.5 0 1,0 1,0 a 0.5,0.5 0 1,0 -1,0  M-82.28 54.81999999999999 L-82.28 54.81999999999999 -75.28 48.81999999999999 -82.28 42.81999999999999 M -82.28 42.81999999999999 m -1, 0 a 1,1 0 1,0 2,0 a 1,1 0 1,0 -2,0 M -82.28 42.81999999999999 m -0.5, 0 a 0.5,0.5 0 1,0 1,0 a 0.5,0.5 0 1,0 -1,0  M-70.28 48.81999999999999 Q -36.96 48.81999999999999, -3.64 -99.36 T 63 -247.55 M 75 -247.55 m -1, 0 a 1,1 0 1,0 2,0 a 1,1 0 1,0 -2,0 M 75 -247.55 m -0.5, 0 a 0.5,0.5 0 1,0 1,0 a 0.5,0.5 0 1,0 -1,0  M75 -247.55 L75 -247.55 63 -247.55 M69 -241.55 L69 -241.55 69 -253.55" id="h304082562" class="r"></path><path d="M -82.28 73.82 m -1, 0 a 1,1 0 1,0 2,0 a 1,1 0 1,0 -2,0 M -82.28 73.82 m -0.5, 0 a 0.5,0.5 0 1,0 1,0 a 0.5,0.5 0 1,0 -1,0  M-82.28 73.82 L-82.28 73.82 -70.28 73.82 M -82.28 79.82 m -1, 0 a 1,1 0 1,0 2,0 a 1,1 0 1,0 -2,0 M -82.28 79.82 m -0.5, 0 a 0.5,0.5 0 1,0 1,0 a 0.5,0.5 0 1,0 -1,0  M-82.28 79.82 L-82.28 79.82 -75.28 73.82 -82.28 67.82 M -82.28 67.82 m -1, 0 a 1,1 0 1,0 2,0 a 1,1 0 1,0 -2,0 M -82.28 67.82 m -0.5, 0 a 0.5,0.5 0 1,0 1,0 a 0.5,0.5 0 1,0 -1,0  M-70.28 73.82 Q -47.64 73.82, -25 64.96 T 20.270000000000003 56.09 M 32.27 56.09 m -1, 0 a 1,1 0 1,0 2,0 a 1,1 0 1,0 -2,0 M 32.27 56.09 m -0.5, 0 a 0.5,0.5 0 1,0 1,0 a 0.5,0.5 0 1,0 -1,0  M32.27 56.09 L32.27 56.09 20.270000000000003 56.09 M26.270000000000003 62.09 L26.270000000000003 62.09 26.270000000000003 50.09" id="h4142602408" class="r"></path><path d="M 312.73 -141.18 m -1, 0 a 1,1 0 1,0 2,0 a 1,1 0 1,0 -2,0 M 312.73 -141.18 m -0.5, 0 a 0.5,0.5 0 1,0 1,0 a 0.5,0.5 0 1,0 -1,0  M312.73 -141.18 L312.73 -141.18 300.73 -141.18 M 312.73 -135.18 m -1, 0 a 1,1 0 1,0 2,0 a 1,1 0 1,0 -2,0 M 312.73 -135.18 m -0.5, 0 a 0.5,0.5 0 1,0 1,0 a 0.5,0.5 0 1,0 -1,0  M312.73 -135.18 L312.73 -135.18 305.73 -141.18 312.73 -147.18 M 312.73 -147.18 m -1, 0 a 1,1 0 1,0 2,0 a 1,1 0 1,0 -2,0 M 312.73 -147.18 m -0.5, 0 a 0.5,0.5 0 1,0 1,0 a 0.5,0.5 0 1,0 -1,0  M300.73 -141.18 Q 207.98 -141.18, 115.23 -183.68 T -70.28 -226.18 M -82.28 -226.18 m -1, 0 a 1,1 0 1,0 2,0 a 1,1 0 1,0 -2,0 M -82.28 -226.18 m -0.5, 0 a 0.5,0.5 0 1,0 1,0 a 0.5,0.5 0 1,0 -1,0  M-82.28 -226.18 L-82.28 -226.18 -70.28 -226.18 M-76.28 -220.18 L-76.28 -220.18 -76.28 -232.18" id="h2047093605" class="r"></path></g><g class="hrs"></g><g class="ts"><svg width="175" height="400" x="-257.28" y="-308.18" id="h3257514455" class="t"><rect height="40" width="175" class="th"></rect><text x="13" y="25" class="tht">campaign</text><rect height="360" width="175" class="t-bg" y="40"></rect><text x="13" y="61" class="tf pk">cf_id<tspan x="162" class="ty">int</tspan></text><path d="M7,14A2,2 0 0,1 5,12A2,2 0 0,1 7,10A2,2 0 0,1 9,12A2,2 0 0,1 7,14M12.65,10C11.83,7.67 9.61,6 7, 6A6, 6 0 0, 0 1, 12A6, 6 0 0, 0 7, 18C9.61, 18 11.83, 16.33 12.65, 14H17V18H21V14H23V10H12.65Z" class="i pk" transform="translate(129, 48) scale(0.65)"></path><text x="13" y="86" class="tf fk">contact_id<tspan x="162" class="ty">int</tspan></text><text x="13" y="111" class="tf">company_name<tspan x="162" class="ty">varchar</tspan></text><text x="13" y="136" class="tf">description<tspan x="162" class="ty">varchar</tspan></text><text x="13" y="161" class="tf">goal<tspan x="162" class="ty">double</tspan></text><text x="13" y="186" class="tf">pledge<tspan x="162" class="ty">double</tspan></text><text x="13" y="211" class="tf">outcome<tspan x="162" class="ty">varchar</tspan></text><text x="13" y="236" class="tf">backers_count<tspan x="162" class="ty">int</tspan></text><text x="13" y="261" class="tf">country<tspan x="162" class="ty">varchar</tspan></text><text x="13" y="286" class="tf">curency<tspan x="162" class="ty">varchar</tspan></text><text x="13" y="311" class="tf">launched_date<tspan x="162" class="ty">date</tspan></text><text x="13" y="336" class="tf">end_date<tspan x="162" class="ty">date</tspan></text><text x="13" y="361" class="tf fk">category_id<tspan x="162" class="ty">varchar</tspan></text><text x="13" y="386" class="tf fk">subcategory_id<tspan x="162" class="ty">varchar</tspan></text></svg><svg width="169" height="100" x="75" y="-304.55" id="h2794354149" class="t"><rect height="40" width="169" class="th"></rect><text x="13" y="25" class="tht">category</text><rect height="60" width="169" class="t-bg" y="40"></rect><text x="13" y="61" class="tf pk">category_id<tspan x="156" class="ty">varchar</tspan></text><path d="M7,14A2,2 0 0,1 5,12A2,2 0 0,1 7,10A2,2 0 0,1 9,12A2,2 0 0,1 7,14M12.65,10C11.83,7.67 9.61,6 7, 6A6, 6 0 0, 0 1, 12A6, 6 0 0, 0 7, 18C9.61, 18 11.83, 16.33 12.65, 14H17V18H21V14H23V10H12.65Z" class="i pk" transform="translate(96, 48) scale(0.65)"></path><text x="13" y="86" class="tf">category<tspan x="156" class="ty">varchar</tspan></text></svg><svg width="145" height="150" x="312.73" y="-198.18" id="h4144639668" class="t"><rect height="40" width="145" class="th"></rect><text x="13" y="25" class="tht">contacts</text><rect height="110" width="145" class="t-bg" y="40"></rect><text x="13" y="61" class="tf pk">contact_id<tspan x="132" class="ty">int</tspan></text><path d="M7,14A2,2 0 0,1 5,12A2,2 0 0,1 7,10A2,2 0 0,1 9,12A2,2 0 0,1 7,14M12.65,10C11.83,7.67 9.61,6 7, 6A6, 6 0 0, 0 1, 12A6, 6 0 0, 0 7, 18C9.61, 18 11.83, 16.33 12.65, 14H17V18H21V14H23V10H12.65Z" class="i pk" transform="translate(99, 48) scale(0.65)"></path><text x="13" y="86" class="tf">first_name<tspan x="132" class="ty">varchar</tspan></text><text x="13" y="111" class="tf">last_name<tspan x="132" class="ty">varchar</tspan></text><text x="13" y="136" class="tf">emaail<tspan x="132" class="ty">varchar</tspan></text></svg><svg width="169" height="100" x="32.27" y="-0.91" id="h1568904301" class="t"><rect height="40" width="169" class="th"></rect><text x="13" y="25" class="tht">subcategory</text><rect height="60" width="169" class="t-bg" y="40"></rect><text x="13" y="61" class="tf pk">category_id<tspan x="156" class="ty">varchar</tspan></text><path d="M7,14A2,2 0 0,1 5,12A2,2 0 0,1 7,10A2,2 0 0,1 9,12A2,2 0 0,1 7,14M12.65,10C11.83,7.67 9.61,6 7, 6A6, 6 0 0, 0 1, 12A6, 6 0 0, 0 7, 18C9.61, 18 11.83, 16.33 12.65, 14H17V18H21V14H23V10H12.65Z" class="i pk" transform="translate(96, 48) scale(0.65)"></path><text x="13" y="86" class="tf">category<tspan x="156" class="ty">varchar</tspan></text></svg></g></g><text class="qdbd-link" x="10" y="20">www.quickdatabasediagrams.com</text></svg>